<svg width="120" height="120" viewBox="0 0 120 120" fill="none" xmlns="http://www.w3.org/2000/svg">
<g clip-path="url(#clip0_2002_71)">
<path fill-rule="evenodd" clip-rule="evenodd" d="M50.0355 63.3313C50.0355 63.3313 47.1693 64.9991 52.0775 65.5625C58.0253 66.2417 61.0633 66.1439 67.6157 64.9044C67.6157 64.9044 69.3407 65.9846 71.7488 66.919C57.056 73.2148 38.4966 66.5548 50.0355 63.3313ZM48.2395 55.1155C48.2395 55.1155 45.024 57.4955 49.9365 58.0035C56.2903 58.6596 61.3055 58.7132 69.9894 57.0423C69.9894 57.0423 71.1885 58.2594 73.0754 58.9242C55.3135 64.1194 35.5314 59.3332 48.2395 55.1155Z" fill="#3174B9"/>
<path fill-rule="evenodd" clip-rule="evenodd" d="M63.3735 41.1773C66.9955 45.3465 62.4242 49.0962 62.4242 49.0962C62.4242 49.0962 71.6167 44.3517 67.3946 38.4082C63.4526 32.8682 60.4289 30.1159 76.7963 20.6245C76.7963 20.6245 51.1037 27.0386 63.3735 41.1773Z" fill="#CA3132"/>
<path fill-rule="evenodd" clip-rule="evenodd" d="M82.8052 69.4085C82.8052 69.4085 84.9269 71.1579 80.4682 72.5107C71.9897 75.0787 45.1734 75.8531 37.7246 72.6128C35.0489 71.4473 40.0691 69.8318 41.6486 69.4907C43.2958 69.1346 44.2359 69.1993 44.2359 69.1993C41.2582 67.1026 24.9891 73.3175 35.9734 75.1005C65.9255 79.957 90.5734 72.9141 82.8052 69.4085ZM51.4145 46.6021C51.4145 46.6021 37.7757 49.8424 46.5854 51.0203C50.3063 51.5177 57.7184 51.4031 64.6281 50.8236C70.2733 50.3498 75.9398 49.3363 75.9398 49.3363C75.9398 49.3363 73.9507 50.1898 72.5095 51.1722C58.6572 54.816 31.9013 53.1189 39.6047 49.3942C46.1178 46.2435 51.4145 46.6021 51.4145 46.6021ZM75.8831 60.2776C89.9633 52.9626 83.4533 45.9316 78.9081 46.8791C77.7968 47.1113 77.2982 47.3118 77.2982 47.3118C77.2982 47.3118 77.7128 46.6631 78.5009 46.3842C87.4912 43.2247 94.404 55.705 75.6024 60.6474C75.6017 60.6474 75.8184 60.4519 75.8831 60.2776Z" fill="#3174B9"/>
<path fill-rule="evenodd" clip-rule="evenodd" d="M67.3947 5.29419C67.3947 5.29419 75.1909 13.0953 59.9982 25.0875C47.8143 34.7109 57.2204 40.1961 59.9944 46.4658C52.8812 40.0492 47.6636 34.3996 51.1636 29.1428C56.3021 21.4263 70.5404 17.6842 67.3947 5.29419Z" fill="#CA3132"/>
<path fill-rule="evenodd" clip-rule="evenodd" d="M52.7996 80.1059C66.3126 80.97 87.0677 79.6259 87.5602 73.2305C87.5602 73.2305 86.6152 75.6547 76.391 77.5777C64.8558 79.7492 50.6262 79.4964 42.1895 78.1038C42.1895 78.1038 43.9183 79.5344 52.7996 80.1059Z" fill="#3174B9"/>
<path fill-rule="evenodd" clip-rule="evenodd" d="M86.9358 91.5745H86.5249V91.3441H87.6337V91.5745H87.2228V92.7249H86.9358V91.5745ZM89.1483 91.6317H89.1433L88.735 92.7243H88.5476L88.1417 91.6317H88.1367V92.7243H87.864V91.3435H88.2643L88.6403 92.3203L89.0163 91.3435H89.4129V92.7243H89.1489L89.1483 91.6317ZM50.5852 104.539C49.3108 105.643 47.9636 106.265 46.754 106.265C45.0308 106.265 44.0957 105.229 44.0957 103.573C44.0957 101.779 45.0968 100.467 49.1035 100.467H50.5845L50.5852 104.539ZM54.1026 108.507V96.223C54.1026 93.0835 52.3121 91.0117 47.996 91.0117C45.4778 91.0117 43.2702 91.6336 41.4754 92.4261L41.9921 94.6019C43.4059 94.0827 45.2337 93.6015 47.0279 93.6015C49.5144 93.6015 50.5845 94.6019 50.5845 96.6731V98.2264H49.3419C43.302 98.2264 40.5765 100.57 40.5765 104.093C40.5765 107.128 42.3725 108.854 45.7536 108.854C47.9269 108.854 49.5505 107.957 51.0664 106.644L51.3422 108.507H54.1026ZM65.842 108.507H61.4561L56.175 91.3242H60.0062L63.2839 101.883L64.0135 105.056C65.667 100.467 66.8405 95.8084 67.4276 91.3242H71.1529C70.1556 96.9819 68.3589 103.194 65.842 108.507ZM82.6738 104.539C81.3957 105.643 80.0485 106.265 78.8414 106.265C77.1182 106.265 76.1844 105.229 76.1844 103.573C76.1844 101.779 77.186 100.467 81.1903 100.467H82.6738V104.539ZM86.1925 108.507V96.223C86.1925 93.0835 84.3964 91.0117 80.0846 91.0117C77.5639 91.0117 75.357 91.6336 73.5622 92.4261L74.0789 94.6019C75.4927 94.0827 77.3243 93.6015 79.1191 93.6015C81.6018 93.6015 82.6732 94.6019 82.6732 96.6731V98.2264H81.4306C75.39 98.2264 72.6663 100.57 72.6663 104.093C72.6663 107.128 74.4587 108.854 77.8403 108.854C80.0155 108.854 81.6367 107.957 83.1563 106.644L83.4333 108.507H86.1925ZM36.7198 111.427C35.7175 112.892 34.0963 114.052 32.3239 114.706L30.587 112.66C31.9373 111.967 33.094 110.849 33.6325 109.808C34.0963 108.88 34.29 107.687 34.29 104.832V85.2126H38.0284V104.561C38.0284 108.38 37.7233 109.923 36.7198 111.427Z" fill="#CA3132"/>
</g>
<defs>
<clipPath id="clip0_2002_71">
<rect width="120" height="120" fill="white"/>
</clipPath>
</defs>
</svg>
